<?xml version="1.0" encoding="UTF-8" standalone="no"?>
<svg
   xmlns:dc="http://purl.org/dc/elements/1.1/"
   xmlns:cc="http://creativecommons.org/ns#"
   xmlns:rdf="http://www.w3.org/1999/02/22-rdf-syntax-ns#"
   xmlns:svg="http://www.w3.org/2000/svg"
   xmlns="http://www.w3.org/2000/svg"
   viewBox="0 0 1821.3333 343.37466"
   height="343.37466"
   width="1821.3333"
   xml:space="preserve"
   id="svg2"
   version="1.1"><metadata
     id="metadata8"><rdf:RDF><cc:Work
         rdf:about=""><dc:format>image/svg+xml</dc:format><dc:type
           rdf:resource="http://purl.org/dc/dcmitype/StillImage" /></cc:Work></rdf:RDF></metadata><defs
     id="defs6"><clipPath
       id="clipPath18"
       clipPathUnits="userSpaceOnUse"><path
         id="path16"
         d="M 0,257.531 H 1366 V 0 H 0 Z" /></clipPath></defs><g
     transform="matrix(1.3333333,0,0,-1.3333333,0,343.37467)"
     id="g10"><g
       id="g12"><g
         clip-path="url(#clipPath18)"
         id="g14"><g
           transform="translate(511.6182,130.5768)"
           id="g20"><path
             id="path22"
             style="fill:#000000;fill-opacity:1;fill-rule:nonzero;stroke:none"
             d="m 0,0 c 0,23.592 -15.695,39.26 -39.244,39.26 h -18.292 v -78.781 h 18.292 C -15.695,-39.521 0,-23.46 0,0 m 44.913,0 c 0,-46.404 -34.077,-79.641 -82.092,-79.641 H -101.54 V 79.38 h 64.361 C 10.968,79.38 44.913,46.468 44.913,0" /></g><g
           transform="translate(658.6133,87.6774)"
           id="g24"><path
             id="path26"
             style="fill:#000000;fill-opacity:1;fill-rule:nonzero;stroke:none"
             d="M 0,0 C 24.204,0 41.723,17.879 41.723,42.763 41.723,67.65 24.204,85.528 0,85.528 -24.205,85.528 -41.985,67.52 -41.985,42.765 -41.985,18.01 -24.205,0.002 0,0.002 Z m 0,-40.764 c -51.121,0 -87.599,34.93 -87.599,83.532 0,48.601 36.478,83.531 87.599,83.531 50.989,0 87.337,-34.798 87.337,-83.531 0,-48.732 -36.348,-83.53 -87.337,-83.53 z" /></g><g
           transform="translate(985.1777,209.9572)"
           id="g28"><path
             id="path30"
             style="fill:#000000;fill-opacity:1;fill-rule:nonzero;stroke:none"
             d="m 0,0 -49.035,-159.021 h -38.566 l -30.505,76.755 -29.922,-76.755 h -38.563 L -236.378,0 h 47.045 l 25.796,-91.652 37.884,90.866 h 15.158 L -71.932,-91.723 -46.652,0 Z" /></g><path
           id="path32"
           style="fill:#000000;fill-opacity:1;fill-rule:nonzero;stroke:none"
           d="m 1001.885,209.957 h 44.39 V 50.936 h -44.39 z" /><g
           transform="translate(1196.334,170.5109)"
           id="g34"><path
             id="path36"
             style="fill:#000000;fill-opacity:1;fill-rule:nonzero;stroke:none"
             d="M 0,0 H -43.197 V -119.575 H -87.199 V 0 h -43.199 V 39.446 H 0 Z" /></g><g
           transform="translate(1352,209.9572)"
           id="g38"><path
             id="path40"
             style="fill:#000000;fill-opacity:1;fill-rule:nonzero;stroke:none"
             d="m 0,0 v -159.021 h -44.196 v 61.046 h -47.72 v -61.046 h -44.196 V 0 h 44.196 v -57.372 h 47.72 V 0 Z" /></g><g
           transform="translate(124.0918,130.4449)"
           id="g42"><path
             id="path44"
             style="fill:#5c62cc;fill-opacity:1;fill-rule:nonzero;stroke:none"
             d="M 0,0 C 0,34.377 14.211,63.413 37.919,82.607 20.416,95.136 -1.905,102.271 -27.31,102.271 h -82.782 v -204.537 h 82.782 c 25.306,0 47.594,7.187 65.097,19.766 C 14.159,-63.305 0,-34.313 0,0" /></g><g
           transform="translate(236.7642,237.8849)"
           id="g46"><path
             id="path48"
             style="fill:#47cc71;fill-opacity:1;fill-rule:nonzero;stroke:none"
             d="m 0,0 c -29.594,0 -55.35,-9.124 -74.753,-24.833 25.164,-18.013 40.359,-47.188 40.359,-82.438 0,-35.229 -15.278,-64.549 -40.491,-82.669 19.418,-15.774 45.224,-24.94 74.885,-24.94 v 0.003 c 65.583,0 112.334,44.757 112.334,107.437 C 112.334,-44.758 65.583,0 0,0" /></g></g></g></g></svg>